<svg width="77" height="82" viewBox="0 0 77 82" fill="none" xmlns="http://www.w3.org/2000/svg">
<path d="M34.7136 70.9056C34.8743 71.2272 34.7136 71.7095 34.7136 71.8703L31.4979 80.0703C31.0155 81.035 29.89 81.6782 28.9253 81.839C28.2822 81.839 27.6391 81.839 27.1567 81.839C25.5489 81.839 23.7802 81.839 22.1724 81.839C21.69 81.839 21.3685 81.839 20.8861 81.839C19.9214 81.839 19.4391 81.035 19.9214 79.9095C20.0822 79.4272 20.4038 78.7841 20.5645 78.3017C20.8861 77.337 21.2077 76.5331 21.5293 75.5684C21.8508 74.7644 22.1724 73.9605 22.494 72.9958C22.6547 72.5135 22.8155 72.1919 22.9763 71.7095C23.6194 70.4233 24.4234 69.9409 25.3881 69.9409H33.5881C34.0704 70.2625 34.392 70.5841 34.7136 70.9056ZM31.1763 72.0311V71.8703C31.1763 71.5488 31.0155 71.5488 30.8547 71.5488H27.3175C26.9959 71.5488 26.6743 71.7095 26.5136 72.1919L23.2979 80.3919V80.5527C23.2979 80.8742 23.4587 80.8742 23.6194 80.8742H27.1567C27.4783 80.8742 27.7998 80.7135 27.9606 80.2311L31.1763 72.0311Z" fill="white"/>
<path d="M42.4319 77.4979C42.4319 77.6587 42.4319 77.6587 42.4319 77.4979L43.5574 80.2312C43.7181 80.5528 43.8789 80.7136 44.3613 80.7136H45.326C45.4868 80.7136 45.4868 80.7136 45.6476 80.8744C46.1299 81.3567 46.6123 81.6783 47.0946 81.8391V81.9998C47.0946 81.9998 45.4868 81.9998 44.8436 81.9998H41.3064C40.9848 81.9998 40.6632 81.8391 40.5025 81.5175L38.8946 77.6587C38.7338 77.3371 38.573 77.1763 38.2515 77.1763C37.9299 77.1763 37.7691 77.3371 37.6083 77.8195L36.1613 81.3567C36.1613 81.8391 35.8397 81.9998 35.3574 81.9998H32.9456C32.624 81.9998 32.624 81.8391 32.624 81.6783V81.5175L35.8397 73.3175C36.0005 72.9959 36.3221 72.6744 36.6436 72.6744H39.0554C39.377 72.6744 39.377 72.8351 39.377 72.9959V73.1567L38.573 75.5685C38.573 75.7293 38.573 75.7293 38.573 75.7293C38.573 76.0508 38.7338 76.0508 38.8946 76.0508H42.4319C42.7534 76.0508 43.075 75.89 43.2358 75.4077L44.6828 71.8704V71.7096C44.6828 71.3881 44.5221 71.3881 44.3613 71.3881H36.9652C36.8044 71.3881 36.8044 71.3881 36.6436 71.2273C36.3221 70.9057 35.8397 70.4234 35.3574 70.2626V70.1018C35.3574 70.1018 36.6436 70.1018 37.4476 70.1018H47.0946C47.4162 70.1018 47.7377 70.2626 47.8985 70.5842C48.2201 71.0665 48.2201 71.3881 48.0593 71.8704L46.773 75.5685C46.4515 76.2116 45.9691 76.694 45.326 77.0155C45.0044 77.1763 44.5221 77.3371 44.2005 77.3371H42.7534C42.5926 77.3371 42.4319 77.3371 42.4319 77.4979Z" fill="white"/>
<path d="M76.9996 70.2626C76.6781 70.5842 76.1957 70.7449 75.8742 71.0665C75.8742 71.0665 75.8742 71.0665 75.7134 71.2273C75.5526 71.3881 75.3918 71.3881 75.231 71.3881H68.1565C67.8349 71.3881 67.5134 71.5489 67.3526 72.0312L65.9055 75.5685C65.9055 75.7293 65.9055 75.7293 65.9055 75.7293C65.9055 76.0508 66.0663 76.0508 66.2271 76.0508H72.1761C72.98 76.0508 73.6232 77.0155 73.3016 77.8195L72.3369 80.2312C72.0153 81.1959 70.8898 81.9998 69.9251 81.9998H61.5644C61.4036 81.9998 61.082 81.9998 60.5996 81.9998C59.9565 81.9998 59.1526 81.9998 59.1526 81.9998C59.1526 81.9998 59.1526 81.9999 59.1526 81.8391C59.4742 81.6783 59.9565 81.3567 60.4389 81.0351L60.5996 80.8744C60.7604 80.7136 60.9212 80.7136 61.082 80.7136H67.9957C68.3173 80.7136 68.6389 80.5528 68.7996 80.0704L69.7643 77.6587V77.4979C69.7643 77.1763 69.6036 77.1763 69.4428 77.1763H63.4938C62.5291 77.1763 62.0467 76.2116 62.3683 75.4077L63.8153 71.8704C64.2977 70.7449 65.2624 70.1018 66.2271 70.1018H75.7134C76.3565 70.2626 76.9996 70.2626 76.9996 70.2626Z" fill="white"/>
<path d="M62.5301 70.2627H58.9928C58.1889 70.2627 56.7418 70.2627 56.7418 70.2627C56.7418 70.2627 56.7418 70.2627 56.7418 70.4235C57.5458 70.745 58.3497 71.2274 58.832 72.1921L55.6163 80.2313C55.4556 80.5529 55.134 80.8745 54.8124 80.8745H51.2752C50.9536 80.8745 50.9536 80.7137 50.9536 80.5529V80.3921L54.6516 70.9058C54.6516 70.745 54.6516 70.745 54.6516 70.745C54.6516 70.4235 54.4909 70.4235 54.3301 70.4235H50.7928C49.9889 70.4235 48.5418 70.4235 48.5418 70.4235C48.5418 70.4235 48.5418 70.4235 48.5418 70.5843C49.3458 70.9058 50.3105 71.3882 50.632 72.5137L47.4164 80.5529C47.0948 81.0352 47.5771 81.9999 48.5418 81.9999H56.7418C57.2242 81.9999 57.8673 81.8392 58.1889 81.5176C58.5105 81.3568 58.9928 80.7137 59.1536 80.2313L62.8516 70.745C62.8516 70.5843 62.8516 70.5843 62.8516 70.5843C63.0124 70.2627 62.8516 70.2627 62.5301 70.2627Z" fill="white"/>
<path d="M21.2077 70.2627H15.2587C14.9371 70.2627 14.4548 70.4235 14.1332 70.745L2.87832 80.0705L2.0744 80.7137C1.91361 80.8745 1.75283 81.0352 1.59204 81.196C1.27047 81.5176 0.788121 81.6784 0.466553 81.8392V81.9999C0.466553 81.9999 0.788121 81.9999 1.10969 81.9999C1.91361 81.9999 3.0391 81.9999 3.36067 81.9999H3.52145C3.84302 81.9999 4.32538 81.8392 4.64694 81.5176L9.14891 77.6588C9.47047 77.3372 9.95283 77.1764 10.2744 77.1764H14.7764C15.0979 77.1764 15.0979 77.3372 15.0979 77.498V77.6588L14.294 79.749C13.8117 80.5529 12.8469 81.3568 12.043 81.6784V81.8392C12.043 81.8392 13.3293 81.8392 14.1332 81.8392H16.545C16.8666 81.8392 17.1881 81.6784 17.3489 81.196L21.5293 70.5843C21.5293 70.4235 21.5293 70.4235 21.5293 70.4235C21.5293 70.2627 21.3685 70.2627 21.2077 70.2627ZM17.1881 71.8705L15.7411 75.4078C15.5803 75.7294 15.2587 76.0509 14.9371 76.0509H11.5607C11.3999 76.0509 11.2391 76.0509 11.2391 75.8901C11.2391 75.7294 11.2391 75.7294 11.3999 75.5686L15.9018 71.7098C16.2234 71.3882 16.545 71.2274 16.8666 71.2274C17.0273 71.2274 17.1881 71.3882 17.1881 71.549C17.3489 71.7098 17.1881 71.8705 17.1881 71.8705Z" fill="white"/>
<path d="M77.0002 2.0902C77.0002 0.964706 76.0354 0 74.91 0C74.5884 0 74.4276 0 74.106 0.160784L65.4237 3.69804L60.2786 9.64706L54.4903 8.03922L65.4237 3.69804L59.7962 2.25098L10.5962 22.0275V22.5098C10.5962 22.5098 13.1688 22.349 15.9021 23.6353C15.4198 23.9569 6.89819 27.3333 6.89819 27.3333C6.89819 27.3333 6.89819 27.4941 7.05898 27.6549C10.2747 27.1726 15.7413 27.4941 20.0825 30.3882C18.957 30.8706 12.6864 33.4431 12.6864 33.4431C12.6864 33.4431 12.6864 33.6039 12.8472 33.7647C15.4198 33.7647 19.1178 34.8902 20.8864 36.3373C21.208 38.4275 21.5296 49.2 20.4041 56.1137C20.5649 56.2745 20.7256 56.4353 20.7256 56.4353C20.7256 56.4353 33.2668 43.8941 46.4511 30.7098C62.0472 14.9529 69.9256 6.75294 73.1413 4.34118C73.3021 4.18039 73.4629 4.18039 73.6237 4.18039C74.106 4.18039 74.2668 4.50196 74.4276 4.98431C74.5884 5.94902 74.4276 9.16471 74.4276 9.16471L76.8394 3.0549C77.0002 2.73333 77.0002 2.41176 77.0002 2.0902Z" fill="white"/>
<path d="M25.39 53.3802L44.5233 34.2468L39.2175 50.486L42.1116 52.5762L62.8527 41.6429L56.7429 39.0704L66.39 37.1409L70.088 42.6076C70.088 42.6076 38.8959 67.8507 38.4135 68.1723C32.1429 65.2782 25.8724 59.8115 24.4253 58.3645C24.9076 56.2743 25.39 53.3802 25.39 53.3802Z" fill="white"/>
</svg>
