<svg width="37" height="36" viewBox="0 0 37 36" fill="none" xmlns="http://www.w3.org/2000/svg">
<path d="M34.9676 36.0001L23.4159 25.4277L18.3222 29.4379L13.1376 25.4277L1.58588 36.0001H34.9676Z" fill="white"/>
<path d="M36.5136 15.4937L25.0529 24.2432L36.5136 34.7243C36.5136 34.6332 36.5136 34.5421 36.5136 34.4509V15.4937Z" fill="white"/>
<path d="M31.7841 16.5872V4.64774C31.7841 4.10089 31.3293 3.73633 30.8745 3.73633H5.67905C5.22426 3.73633 4.76947 4.10089 4.76947 4.64774V16.5872L18.3223 26.8861L31.7841 16.5872ZM12.5009 15.3112C11.9552 15.3112 11.5004 14.8555 11.5004 14.3087C11.5004 13.7618 11.9552 13.3061 12.5009 13.3061H24.0526C24.5984 13.3061 25.0532 13.7618 25.0532 14.3087C25.0532 14.8555 24.5984 15.3112 24.0526 15.3112H12.5009ZM12.5009 9.9339C11.9552 9.9339 11.5004 9.4782 11.5004 8.93135C11.5004 8.38451 11.9552 7.9288 12.5009 7.9288H24.0526C24.5984 7.9288 25.0532 8.38451 25.0532 8.93135C25.0532 9.4782 24.5984 9.9339 24.0526 9.9339H12.5009Z" fill="white"/>
<path d="M33.785 11.8486V15.0386L35.877 13.398L33.785 11.8486Z" fill="white"/>
<path d="M16.0483 1.73167H20.5052L18.3222 0L16.0483 1.73167Z" fill="white"/>
<path d="M2.76819 15.0386V11.8486L0.676147 13.398L2.76819 15.0386Z" fill="white"/>
<path d="M0.0394897 34.7243L11.5002 24.2432L0.0394897 15.4937V34.4509C0.0394897 34.5421 0.0394897 34.6332 0.0394897 34.7243Z" fill="white"/>
</svg>
